<mxfile host="Electron" modified="2023-08-12T05:36:46.731Z" agent="Mozilla/5.0 (X11; Linux x86_64) AppleWebKit/537.36 (KHTML, like Gecko) draw.io/21.1.2 Chrome/106.0.5249.199 Electron/21.4.3 Safari/537.36" etag="_0PcTpAEMgXZqk4Q-OcA" version="21.1.2" type="device">
  <diagram name="Page-1" id="EuCpa8Hlnvk2KAVyg0J5">
    <mxGraphModel dx="2074" dy="1189" grid="1" gridSize="10" guides="1" tooltips="1" connect="1" arrows="1" fold="1" page="1" pageScale="1" pageWidth="850" pageHeight="1100" math="0" shadow="0">
      <root>
        <mxCell id="0" />
        <mxCell id="1" parent="0" />
        <mxCell id="QplM-WZJ82Yex_5dZCln-1" value="Resource Group&lt;br&gt;nico-sandbox-001" style="fontStyle=0;verticalAlign=top;align=center;spacingTop=-2;fillColor=none;rounded=0;whiteSpace=wrap;html=1;strokeColor=#919191;strokeWidth=2;dashed=1;container=1;collapsible=0;expand=0;recursiveResize=0;" vertex="1" parent="1">
          <mxGeometry x="200" y="200" width="600" height="320" as="geometry" />
        </mxCell>
        <mxCell id="QplM-WZJ82Yex_5dZCln-2" value="Storage Account&lt;br&gt;stnicotimeeventtestfn" style="image;aspect=fixed;html=1;points=[];align=center;fontSize=12;image=img/lib/azure2/storage/Storage_Accounts.svg;" vertex="1" parent="1">
          <mxGeometry x="260" y="400" width="65" height="52" as="geometry" />
        </mxCell>
        <mxCell id="QplM-WZJ82Yex_5dZCln-5" style="edgeStyle=orthogonalEdgeStyle;rounded=0;orthogonalLoop=1;jettySize=auto;html=1;" edge="1" parent="1" source="QplM-WZJ82Yex_5dZCln-3" target="QplM-WZJ82Yex_5dZCln-2">
          <mxGeometry relative="1" as="geometry" />
        </mxCell>
        <mxCell id="QplM-WZJ82Yex_5dZCln-3" value="Function App&lt;br&gt;fa-nico-timeeventtest" style="image;aspect=fixed;html=1;points=[];align=center;fontSize=12;image=img/lib/azure2/compute/Function_Apps.svg;" vertex="1" parent="1">
          <mxGeometry x="440" y="396" width="68" height="60" as="geometry" />
        </mxCell>
        <mxCell id="QplM-WZJ82Yex_5dZCln-7" value="crontab trigger" style="edgeStyle=orthogonalEdgeStyle;rounded=0;orthogonalLoop=1;jettySize=auto;html=1;" edge="1" parent="1" source="QplM-WZJ82Yex_5dZCln-6" target="QplM-WZJ82Yex_5dZCln-3">
          <mxGeometry x="-0.0123" y="-16" relative="1" as="geometry">
            <mxPoint as="offset" />
          </mxGeometry>
        </mxCell>
        <mxCell id="QplM-WZJ82Yex_5dZCln-6" value="Event Hub&lt;br&gt;eh-nico-timeeventtest-datadog" style="image;aspect=fixed;html=1;points=[];align=center;fontSize=12;image=img/lib/azure2/iot/Event_Hubs.svg;" vertex="1" parent="1">
          <mxGeometry x="670" y="396" width="67" height="60" as="geometry" />
        </mxCell>
        <mxCell id="QplM-WZJ82Yex_5dZCln-10" style="edgeStyle=orthogonalEdgeStyle;rounded=0;orthogonalLoop=1;jettySize=auto;html=1;" edge="1" parent="1" source="QplM-WZJ82Yex_5dZCln-8" target="QplM-WZJ82Yex_5dZCln-3">
          <mxGeometry relative="1" as="geometry" />
        </mxCell>
        <mxCell id="QplM-WZJ82Yex_5dZCln-8" value="Insights" style="image;aspect=fixed;html=1;points=[];align=center;fontSize=12;image=img/lib/azure2/devops/Application_Insights.svg;" vertex="1" parent="1">
          <mxGeometry x="560" y="260" width="44" height="63" as="geometry" />
        </mxCell>
        <mxCell id="QplM-WZJ82Yex_5dZCln-11" value="listener" style="rounded=0;whiteSpace=wrap;html=1;align=right;spacingRight=8;" vertex="1" parent="1">
          <mxGeometry x="240" y="680" width="160" height="80" as="geometry" />
        </mxCell>
        <mxCell id="QplM-WZJ82Yex_5dZCln-16" value="out" style="edgeStyle=orthogonalEdgeStyle;rounded=0;orthogonalLoop=1;jettySize=auto;html=1;fontSize=12;" edge="1" parent="1" source="QplM-WZJ82Yex_5dZCln-12" target="QplM-WZJ82Yex_5dZCln-15">
          <mxGeometry x="-0.799" y="-21" relative="1" as="geometry">
            <Array as="points">
              <mxPoint x="581" y="870" />
            </Array>
            <mxPoint as="offset" />
          </mxGeometry>
        </mxCell>
        <mxCell id="QplM-WZJ82Yex_5dZCln-12" value="sender" style="rounded=0;whiteSpace=wrap;html=1;align=right;spacingRight=8;" vertex="1" parent="1">
          <mxGeometry x="502" y="680" width="160" height="80" as="geometry" />
        </mxCell>
        <mxCell id="QplM-WZJ82Yex_5dZCln-14" style="edgeStyle=orthogonalEdgeStyle;rounded=0;orthogonalLoop=1;jettySize=auto;html=1;entryX=1;entryY=0.5;entryDx=0;entryDy=0;" edge="1" parent="1" source="QplM-WZJ82Yex_5dZCln-13" target="QplM-WZJ82Yex_5dZCln-12">
          <mxGeometry relative="1" as="geometry" />
        </mxCell>
        <mxCell id="QplM-WZJ82Yex_5dZCln-13" value="timeTrigger" style="sketch=0;pointerEvents=1;shadow=0;dashed=0;html=1;strokeColor=none;fillColor=#505050;labelPosition=center;verticalLabelPosition=bottom;verticalAlign=top;outlineConnect=0;align=center;shape=mxgraph.office.concepts.clock;" vertex="1" parent="1">
          <mxGeometry x="720" y="697.5" width="45" height="45" as="geometry" />
        </mxCell>
        <mxCell id="QplM-WZJ82Yex_5dZCln-17" value="In" style="edgeStyle=orthogonalEdgeStyle;rounded=0;orthogonalLoop=1;jettySize=auto;html=1;entryX=0.5;entryY=1;entryDx=0;entryDy=0;fontSize=12;" edge="1" parent="1" source="QplM-WZJ82Yex_5dZCln-15" target="QplM-WZJ82Yex_5dZCln-11">
          <mxGeometry x="0.814" y="10" relative="1" as="geometry">
            <mxPoint as="offset" />
          </mxGeometry>
        </mxCell>
        <mxCell id="QplM-WZJ82Yex_5dZCln-15" value="Event Hub&lt;br&gt;eh-nico-timeeventtest-datadog" style="image;aspect=fixed;html=1;points=[];align=center;fontSize=12;image=img/lib/azure2/iot/Event_Hubs.svg;" vertex="1" parent="1">
          <mxGeometry x="425" y="840" width="67" height="60" as="geometry" />
        </mxCell>
        <mxCell id="QplM-WZJ82Yex_5dZCln-18" value="" style="image;aspect=fixed;html=1;points=[];align=center;fontSize=12;image=img/lib/azure2/compute/Function_Apps.svg;" vertex="1" parent="1">
          <mxGeometry x="257" y="690" width="68" height="60" as="geometry" />
        </mxCell>
        <mxCell id="QplM-WZJ82Yex_5dZCln-19" value="" style="image;aspect=fixed;html=1;points=[];align=center;fontSize=12;image=img/lib/azure2/compute/Function_Apps.svg;" vertex="1" parent="1">
          <mxGeometry x="520" y="690" width="68" height="60" as="geometry" />
        </mxCell>
        <mxCell id="QplM-WZJ82Yex_5dZCln-20" value="Function App&lt;br style=&quot;border-color: var(--border-color);&quot;&gt;&lt;span style=&quot;background-color: rgb(255, 255, 255);&quot;&gt;fa-nico-timeeventtest&lt;/span&gt;" style="fontStyle=0;verticalAlign=top;align=center;spacingTop=-2;fillColor=none;rounded=0;whiteSpace=wrap;html=1;strokeColor=#919191;strokeWidth=2;dashed=1;container=1;collapsible=0;expand=0;recursiveResize=0;" vertex="1" parent="1">
          <mxGeometry x="200" y="640" width="600" height="160" as="geometry" />
        </mxCell>
        <mxCell id="QplM-WZJ82Yex_5dZCln-21" value="" style="endArrow=none;dashed=1;html=1;dashPattern=1 3;strokeWidth=2;rounded=0;entryX=-0.015;entryY=1.067;entryDx=0;entryDy=0;entryPerimeter=0;exitX=0;exitY=0;exitDx=0;exitDy=0;" edge="1" parent="1" source="QplM-WZJ82Yex_5dZCln-20" target="QplM-WZJ82Yex_5dZCln-3">
          <mxGeometry width="50" height="50" relative="1" as="geometry">
            <mxPoint x="257" y="590" as="sourcePoint" />
            <mxPoint x="307" y="540" as="targetPoint" />
          </mxGeometry>
        </mxCell>
        <mxCell id="QplM-WZJ82Yex_5dZCln-22" value="" style="endArrow=none;dashed=1;html=1;dashPattern=1 3;strokeWidth=2;rounded=0;entryX=0.971;entryY=1;entryDx=0;entryDy=0;entryPerimeter=0;exitX=1;exitY=0;exitDx=0;exitDy=0;" edge="1" parent="1" source="QplM-WZJ82Yex_5dZCln-20" target="QplM-WZJ82Yex_5dZCln-3">
          <mxGeometry width="50" height="50" relative="1" as="geometry">
            <mxPoint x="210" y="650" as="sourcePoint" />
            <mxPoint x="449" y="470" as="targetPoint" />
          </mxGeometry>
        </mxCell>
      </root>
    </mxGraphModel>
  </diagram>
</mxfile>
